<svg xmlns="http://www.w3.org/2000/svg" xmlns:xlink="http://www.w3.org/1999/xlink" width="1080" zoomAndPan="magnify" viewBox="0 0 810 299.999988" height="400" preserveAspectRatio="xMidYMid meet" version="1.0"><defs><g/><clipPath id="165712d283"><path d="M 305 64 L 351.644531 64 L 351.644531 126 L 305 126 Z M 305 64 " clip-rule="nonzero"/></clipPath></defs><path fill="#ed254e" d="M 240.289062 99.789062 C 235.90625 93.582031 237.730469 84.816406 244.304688 81.164062 L 306.734375 47.203125 C 311.480469 44.28125 312.941406 38.4375 310.386719 33.691406 L 304.910156 24.925781 C 302.355469 20.910156 296.878906 19.449219 292.496094 21.640625 L 218.382812 61.808594 C 215.460938 63.269531 212.539062 64.730469 209.984375 66.191406 C 198.300781 73.859375 190.632812 84.449219 182.601562 95.773438 C 160.695312 125.351562 139.15625 154.929688 117.613281 184.507812 C 115.058594 187.796875 112.503906 192.175781 112.136719 195.828125 C 112.136719 219.566406 103.738281 240.746094 96.074219 261.925781 C 94.976562 264.480469 96.4375 267.402344 98.992188 268.5 L 121.628906 279.089844 C 124.550781 280.550781 128.203125 279.089844 128.929688 275.800781 C 131.121094 268.863281 132.949219 261.925781 135.136719 255.351562 C 137.328125 247.683594 141.34375 244.398438 149.742188 243.667969 C 166.171875 242.207031 182.601562 240.746094 198.300781 237.460938 C 205.96875 236 214.730469 231.617188 219.839844 225.773438 C 235.90625 207.148438 250.511719 187.429688 265.480469 167.710938 C 275.703125 154.199219 275.703125 148.355469 265.480469 134.113281 C 257.082031 122.792969 248.683594 111.472656 240.289062 99.789062 Z M 210.347656 177.570312 C 208.890625 179.398438 207.792969 180.855469 206.332031 182.683594 C 191.730469 202.769531 190.269531 204.957031 167.632812 203.863281 C 163.617188 203.5 161.058594 199.117188 163.25 195.464844 L 205.96875 120.601562 C 208.160156 121.699219 208.890625 122.0625 209.617188 122.792969 C 231.890625 149.453125 231.890625 149.453125 210.347656 177.570312 Z M 210.347656 177.570312 " fill-opacity="1" fill-rule="nonzero"/><g clip-path="url(#165712d283)"><path fill="#ed254e" d="M 326.453125 66.558594 C 319.148438 75.320312 306.734375 91.390625 306.003906 100.519531 C 305.277344 113.300781 314.769531 124.253906 327.179688 124.984375 C 339.59375 125.714844 350.546875 115.855469 351.277344 103.074219 C 351.644531 93.945312 341.421875 76.417969 335.214844 66.921875 C 333.753906 63.636719 329.007812 63.636719 326.453125 66.558594 Z M 326.453125 66.558594 " fill-opacity="1" fill-rule="nonzero"/></g><g fill="#a37c40" fill-opacity="1"><g transform="translate(277.650536, 227.57774)"><g><path d="M 24.34375 0.660156 L 28.304688 0.992188 L 32.429688 0.824219 L 35.730469 0.0820312 L 37.464844 -0.578125 L 39.113281 -0.992188 L 40.433594 -1.816406 L 41.921875 -2.476562 L 43.242188 -3.382812 L 46.953125 -6.683594 L 47.863281 -8.167969 L 48.933594 -9.40625 L 49.429688 -11.058594 L 50.253906 -12.460938 L 50.832031 -14.027344 L 51.410156 -22.363281 L 51.164062 -29.046875 L 51.492188 -30.78125 L 51.492188 -32.265625 L 51.164062 -33.917969 L 51.082031 -35.484375 L 51.246094 -37.21875 L 51.164062 -39.527344 L 51.328125 -42.085938 L 51.246094 -43.902344 L 51.492188 -45.46875 L 51.246094 -47.121094 L 51.328125 -53.804688 L 51.082031 -55.207031 L 50.421875 -57.023438 L 47.78125 -57.765625 L 40.023438 -57.847656 L 38.207031 -57.105469 L 37.382812 -55.289062 L 37.464844 -47.203125 L 37.300781 -45.550781 L 37.382812 -42.332031 L 37.21875 -40.601562 L 37.464844 -38.867188 L 37.21875 -32.347656 L 37.546875 -30.863281 L 37.382812 -29.046875 L 37.464844 -26.078125 L 37.300781 -24.425781 L 37.382812 -20.21875 L 37.050781 -17.578125 L 36.308594 -16.007812 L 35.566406 -14.855469 L 34.246094 -13.617188 L 30.945312 -12.542969 L 28.71875 -12.378906 L 25.992188 -12.542969 L 24.507812 -12.957031 L 22.691406 -13.863281 L 21.457031 -14.9375 L 20.464844 -16.089844 L 19.96875 -17.824219 L 19.804688 -32.347656 L 19.558594 -34 L 19.476562 -39.113281 L 19.640625 -40.601562 L 19.640625 -47.203125 L 19.390625 -49.59375 L 19.390625 -51.164062 L 19.804688 -53.640625 L 19.804688 -55.371094 L 18.898438 -56.941406 L 16.917969 -57.683594 L 8.253906 -57.765625 L 6.601562 -56.855469 L 5.859375 -55.207031 L 5.859375 -50.253906 L 5.445312 -48.851562 L 5.777344 -45.386719 L 5.527344 -42.25 L 5.941406 -37.300781 L 5.613281 -35.730469 L 5.859375 -33.917969 L 5.695312 -32.347656 L 5.777344 -30.699219 L 5.613281 -29.128906 L 5.859375 -25.828125 L 5.777344 -19.886719 L 6.023438 -17.496094 L 6.023438 -15.761719 L 6.519531 -14.109375 L 6.765625 -12.542969 L 7.261719 -10.976562 L 8.914062 -8.167969 L 11.140625 -5.445312 L 12.214844 -4.375 L 15.019531 -2.722656 L 16.257812 -1.734375 L 17.824219 -1.074219 L 19.722656 -0.496094 L 20.960938 0.164062 L 22.777344 0.246094 Z M 24.34375 0.660156 "/></g></g></g><g fill="#a37c40" fill-opacity="1"><g transform="translate(334.586897, 227.57774)"><g><path d="M 6.105469 -2.394531 L 6.847656 -0.90625 L 8.828125 0 L 17.90625 -0.164062 L 20.382812 -0.90625 L 21.289062 -2.226562 L 21.457031 -3.796875 L 21.371094 -5.527344 L 21.125 -7.261719 L 21.371094 -18.402344 L 21.042969 -23.1875 L 21.785156 -24.34375 L 23.023438 -24.011719 L 25.085938 -21.457031 L 29.707031 -17.082031 L 30.78125 -15.679688 L 33.503906 -13.449219 L 35.402344 -13.449219 L 36.804688 -14.441406 L 43.734375 -21.457031 L 44.808594 -22.859375 L 45.964844 -24.011719 L 46.953125 -24.179688 L 47.613281 -23.1875 L 47.863281 -21.539062 L 47.613281 -19.96875 L 47.695312 -18.484375 L 47.613281 -16.835938 L 47.863281 -13.78125 L 47.613281 -2.394531 L 48.441406 -0.660156 L 50.253906 0 L 60.15625 0.0820312 L 61.726562 -0.90625 L 62.632812 -2.640625 L 62.882812 -4.292969 L 62.550781 -14.195312 L 62.714844 -15.761719 L 62.550781 -18.980469 L 62.796875 -20.628906 L 62.714844 -22.28125 L 62.882812 -24.011719 L 62.714844 -25.664062 L 62.964844 -27.148438 L 62.714844 -50.503906 L 62.882812 -52.234375 L 62.714844 -53.640625 L 62.796875 -55.371094 L 61.890625 -56.941406 L 60.242188 -57.929688 L 57.765625 -57.1875 L 55.703125 -56.03125 L 53.804688 -53.722656 L 49.101562 -48.851562 L 48.355469 -47.613281 L 36.144531 -34.660156 L 34.328125 -34.082031 L 32.84375 -34.578125 L 31.769531 -35.648438 L 30.78125 -37.050781 L 29.460938 -38.125 L 28.46875 -39.445312 L 22.777344 -45.304688 L 20.796875 -47.78125 L 19.390625 -49.015625 L 18.320312 -50.171875 L 17.410156 -51.410156 L 16.257812 -52.484375 L 15.347656 -53.640625 L 13.535156 -55.535156 L 11.140625 -57.269531 L 8.746094 -57.929688 L 7.097656 -57.023438 L 6.1875 -55.371094 L 6.023438 -53.640625 L 6.273438 -17.246094 L 5.941406 -15.679688 L 6.273438 -3.960938 Z M 6.105469 -2.394531 "/></g></g></g><g fill="#a37c40" fill-opacity="1"><g transform="translate(403.570656, 227.57774)"><g><path d="M 6.105469 -2.558594 L 6.765625 -0.824219 L 8.5 -0.164062 L 10.148438 0 L 15.019531 -0.0820312 L 16.835938 0.0820312 L 18.566406 0.0820312 L 20.21875 -0.824219 L 20.960938 -2.558594 L 21.042969 -5.859375 L 20.878906 -7.425781 L 21.125 -8.914062 L 20.960938 -10.726562 L 20.960938 -12.460938 L 21.539062 -13.863281 L 23.765625 -14.6875 L 25.582031 -14.9375 L 28.058594 -14.6875 L 32.347656 -14.769531 L 35.730469 -15.429688 L 40.519531 -16.835938 L 43.324219 -18.566406 L 44.644531 -19.558594 L 47.121094 -21.949219 L 49.761719 -25.910156 L 50.503906 -27.398438 L 51.082031 -28.882812 L 51.824219 -32.265625 L 51.988281 -33.75 L 52.070312 -38.621094 L 50.585938 -45.054688 L 48.933594 -48.027344 L 47.863281 -49.429688 L 46.789062 -50.585938 L 45.882812 -51.824219 L 44.480469 -53.0625 L 42.003906 -54.710938 L 39.03125 -56.28125 L 37.300781 -56.609375 L 35.648438 -57.269531 L 34.164062 -57.601562 L 9.488281 -57.683594 L 7.261719 -56.941406 L 6.4375 -55.371094 L 6.273438 -53.640625 L 6.273438 -50.253906 L 6.023438 -48.769531 L 6.023438 -47.203125 L 6.273438 -45.46875 L 6.273438 -37.050781 L 6.105469 -35.402344 L 6.273438 -33.917969 L 6.105469 -32.101562 L 6.355469 -28.71875 L 6.023438 -26.488281 L 6.273438 -24.011719 L 6.105469 -22.445312 L 6.105469 -18.980469 L 6.355469 -17.410156 L 6.105469 -14.109375 L 6.355469 -8.914062 L 5.941406 -7.261719 L 6.273438 -5.695312 L 6.023438 -4.125 Z M 23.601562 -28.140625 L 22.03125 -28.882812 L 21.042969 -30.53125 L 20.878906 -42.003906 L 21.867188 -43.820312 L 23.519531 -44.480469 L 25.582031 -44.644531 L 32.183594 -44.3125 L 33.585938 -43.570312 L 34.824219 -42.664062 L 36.144531 -41.425781 L 36.96875 -40.023438 L 37.710938 -36.144531 L 36.804688 -32.347656 L 34.90625 -30.039062 L 33.585938 -29.128906 L 32.265625 -28.386719 L 25.5 -27.976562 Z M 23.601562 -28.140625 "/></g></g></g><g fill="#a37c40" fill-opacity="1"><g transform="translate(457.866483, 227.57774)"><g/></g></g><g fill="#a37c40" fill-opacity="1"><g transform="translate(480.228448, 227.57774)"><g><path d="M 11.058594 0.246094 L 15.101562 0.0820312 L 16.585938 0.164062 L 18.484375 0 L 20.21875 -0.660156 L 20.960938 -2.394531 L 20.878906 -4.042969 L 20.960938 -5.859375 L 20.796875 -8.914062 L 20.960938 -10.480469 L 20.878906 -12.378906 L 21.621094 -13.863281 L 23.519531 -14.769531 L 25.332031 -14.9375 L 27.066406 -14.605469 L 35.566406 -15.265625 L 43.40625 -18.402344 L 44.644531 -19.390625 L 45.800781 -20.710938 L 46.871094 -21.785156 L 47.945312 -23.023438 L 49.675781 -25.664062 L 51.082031 -28.882812 L 51.328125 -30.699219 L 51.824219 -32.019531 L 51.988281 -38.785156 L 51.65625 -40.1875 L 51.410156 -42.003906 L 50.421875 -45.054688 L 48.851562 -47.863281 L 46.871094 -50.585938 L 43.160156 -53.804688 L 40.433594 -55.621094 L 37.132812 -56.609375 L 35.730469 -57.1875 L 34.082031 -57.1875 L 32.429688 -57.765625 L 29.957031 -57.847656 L 27.316406 -57.765625 L 25.5 -57.515625 L 20.464844 -57.601562 L 18.816406 -57.847656 L 13.699219 -57.515625 L 11.882812 -57.601562 L 10.398438 -57.847656 L 8.664062 -57.515625 L 6.933594 -56.609375 L 6.1875 -55.289062 L 6.273438 -45.304688 L 5.941406 -42.003906 L 6.105469 -40.433594 L 6.023438 -19.0625 L 6.1875 -17.496094 L 6.105469 -2.226562 L 7.015625 -0.660156 L 9.574219 0.164062 Z M 23.4375 -27.976562 L 21.785156 -28.964844 L 21.042969 -30.367188 L 20.796875 -37.050781 L 20.960938 -38.785156 L 20.960938 -42.167969 L 21.785156 -43.734375 L 23.519531 -44.5625 L 32.101562 -44.3125 L 33.75 -43.570312 L 35.070312 -42.664062 L 36.144531 -41.589844 L 36.96875 -39.941406 L 37.21875 -38.453125 L 37.382812 -36.144531 L 37.21875 -33.917969 L 36.640625 -32.429688 L 35.898438 -31.109375 L 34.824219 -29.789062 L 33.503906 -28.800781 L 32.183594 -28.386719 L 29.625 -28.058594 L 25.417969 -28.140625 Z M 23.4375 -27.976562 "/></g></g></g><g fill="#a37c40" fill-opacity="1"><g transform="translate(534.524288, 227.57774)"><g><path d="M 1.074219 -2.226562 L 1.484375 -0.496094 L 3.136719 -0.0820312 L 10.398438 -0.0820312 L 12.542969 0.164062 L 14.441406 -0.660156 L 15.925781 -2.144531 L 17.328125 -4.953125 L 18.730469 -6.519531 L 20.710938 -7.34375 L 22.363281 -7.179688 L 26.984375 -7.261719 L 28.71875 -7.015625 L 30.617188 -7.261719 L 32.101562 -7.261719 L 33.832031 -7.097656 L 37.710938 -7.261719 L 40.433594 -6.355469 L 42.167969 -5.035156 L 42.582031 -3.546875 L 43.488281 -2.0625 L 44.890625 -0.742188 L 47.035156 0.0820312 L 48.523438 -0.0820312 L 51.410156 0.164062 L 56.527344 0 L 58.011719 -0.496094 L 58.34375 -2.226562 L 57.847656 -4.292969 L 57.269531 -5.777344 L 56.195312 -7.179688 L 55.703125 -8.828125 L 54.875 -10.066406 L 54.382812 -11.636719 L 52.980469 -14.605469 L 52.402344 -16.175781 L 51.574219 -17.578125 L 50.421875 -20.628906 L 49.511719 -21.949219 L 48.851562 -23.601562 L 48.109375 -25.003906 L 47.53125 -26.65625 L 46.789062 -27.890625 L 46.292969 -29.542969 L 45.386719 -31.027344 L 44.726562 -32.429688 L 43.902344 -33.832031 L 43.488281 -35.402344 L 41.839844 -38.289062 L 41.34375 -39.859375 L 39.859375 -42.992188 L 39.445312 -44.3125 L 38.207031 -47.203125 L 36.558594 -50.253906 L 35.238281 -53.390625 L 34.492188 -54.628906 L 34 -56.195312 L 32.511719 -57.765625 L 29.707031 -58.507812 L 27.066406 -57.683594 L 25.5 -56.195312 L 25.003906 -54.710938 L 21.457031 -47.285156 L 20.546875 -45.800781 L 15.925781 -35.402344 L 15.515625 -34 L 14.605469 -32.511719 L 13.285156 -29.542969 L 12.046875 -27.398438 L 11.46875 -25.828125 L 10.316406 -23.683594 L 9.820312 -21.949219 L 9.078125 -20.628906 L 8.5 -18.980469 L 6.1875 -14.6875 L 3.796875 -8.664062 L 2.804688 -7.34375 L 2.0625 -5.695312 Z M 26.570312 -20.382812 L 25.003906 -21.042969 L 24.757812 -22.691406 L 28.058594 -30.203125 L 28.800781 -31.523438 L 29.871094 -32.347656 L 30.863281 -31.6875 L 31.9375 -28.46875 L 32.84375 -27.066406 L 33.171875 -25.746094 L 34 -24.097656 L 34.578125 -22.609375 L 34.410156 -21.125 L 33.007812 -20.464844 Z M 26.570312 -20.382812 "/></g></g></g><g fill="#a37c40" fill-opacity="1"><g transform="translate(594.431243, 227.57774)"><g><path d="M 6.1875 -2.394531 L 6.933594 -0.90625 L 9.574219 0.0820312 L 38.785156 -0.0820312 L 41.09375 -0.90625 L 42.003906 -2.394531 L 41.839844 -4.207031 L 41.921875 -5.859375 L 42.085938 -7.34375 L 41.839844 -9.160156 L 42.085938 -10.726562 L 41.011719 -12.542969 L 39.691406 -13.367188 L 37.878906 -13.121094 L 23.351562 -13.285156 L 21.621094 -14.027344 L 21.125 -15.84375 L 21.207031 -18.898438 L 20.960938 -20.464844 L 21.042969 -22.28125 L 20.878906 -23.929688 L 21.042969 -25.664062 L 20.960938 -29.789062 L 21.207031 -32.101562 L 20.960938 -33.917969 L 21.207031 -35.648438 L 20.960938 -48.523438 L 21.125 -50.335938 L 20.960938 -54.382812 L 20.136719 -56.855469 L 17.988281 -57.847656 L 9.40625 -57.683594 L 7.015625 -56.773438 L 5.941406 -54.546875 L 6.4375 -50.253906 L 6.273438 -48.6875 L 6.023438 -46.953125 L 6.273438 -45.304688 L 6.4375 -43.734375 L 6.1875 -41.921875 L 6.273438 -40.351562 L 6.105469 -38.703125 L 6.355469 -36.96875 L 6.105469 -35.484375 L 6.273438 -33.832031 L 6.023438 -32.265625 L 6.273438 -28.71875 L 6.023438 -27.148438 L 6.273438 -23.847656 L 6.023438 -22.199219 L 6.105469 -18.898438 L 6.273438 -17.410156 L 6.1875 -7.34375 L 6.355469 -5.695312 L 6.023438 -4.125 Z M 6.1875 -2.394531 "/></g></g></g></svg>